<svg width="26" height="18" viewBox="0 0 26 18" fill="none" xmlns="http://www.w3.org/2000/svg">
<path d="M23.625 0L1.575 0C0.703125 0 0.005625 0.703125 0 1.575L0 1.59188L0 16.4081L0 16.425C0.01125 17.2969 0.703125 18 1.575 18H23.625C24.5025 18 25.2 17.2856 25.2 16.4081V1.59188C25.2 0.714375 24.5025 0 23.625 0ZM2.53688 1.8L22.6575 1.8C23.0456 1.8 23.3381 2.08688 23.3944 2.475V3.6L1.8 3.6V2.45812C1.85625 2.07562 2.15437 1.8 2.53688 1.8ZM22.6631 16.2H2.53688C2.14875 16.2 1.85625 15.9244 1.8 15.5419L1.8 7.44562L23.4 7.44562V15.525C23.3438 15.9131 23.0456 16.2 22.6631 16.2Z" fill="white"/>
<path d="M14.8913 11.4548H3.43652V12.6003H14.8913V11.4548Z" fill="white"/>
<path d="M21.7642 9.16382L3.43652 9.16382V10.3093L21.7642 10.3093V9.16382Z" fill="white"/>
<path d="M14.8913 13.7458H3.43652V14.8913H14.8913V13.7458Z" fill="white"/>
<path d="M21.6 11.7001H18V14.4001H21.6V11.7001Z" fill="white"/>
</svg>
